<?xml version="1.0" standalone="no"?>
<!DOCTYPE svg PUBLIC "-//W3C//DTD SVG 20010904//EN"
 "http://www.w3.org/TR/2001/REC-SVG-20010904/DTD/svg10.dtd">
<svg version="1.0" xmlns="http://www.w3.org/2000/svg"
 width="260.000000pt" height="260.000000pt" viewBox="0 0 260.000000 260.000000"
 preserveAspectRatio="xMidYMid meet">
<metadata>
Created by potrace 1.11, written by Peter Selinger 2001-2013
</metadata>
<g transform="translate(0.000000,260.000000) scale(0.100000,-0.100000)"
fill="#000000" stroke="none">
<path d="M1131 2383 c-52 -109 -98 -201 -104 -204 -5 -4 -21 -5 -36 -3 -38 6
-94 13 -110 13 -10 1 -12 10 -8 34 4 29 -2 42 -42 94 l-47 61 -33 -64 c-33
-64 -33 -66 -18 -104 l15 -40 -51 -49 c-105 -99 -120 -112 -126 -104 -10 14
-169 143 -176 143 -4 0 -4 -12 -1 -27 3 -16 8 -73 12 -128 4 -55 8 -116 9
-135 2 -19 4 -57 4 -84 l1 -48 113 7 c61 4 128 8 147 10 19 2 82 6 140 10 58
3 121 8 140 10 19 2 76 7 125 10 50 4 113 8 140 10 28 2 91 7 140 10 50 3 113
8 140 10 28 2 93 6 145 10 52 3 113 8 135 10 22 2 83 7 135 11 52 4 106 8 120
9 14 2 42 3 63 4 l38 1 -5 53 c-3 28 -8 97 -12 152 -4 55 -8 111 -9 125 -2 14
-3 43 -4 65 l-1 39 -45 -49 c-25 -28 -62 -69 -82 -92 l-37 -41 -97 66 -97 65
14 40 14 39 -46 60 -46 60 -34 -61 c-36 -66 -40 -82 -24 -111 9 -17 4 -21 -41
-34 -28 -9 -66 -18 -84 -22 l-34 -6 -116 179 c-65 98 -120 181 -124 186 -4 4
-49 -82 -100 -190z"/>
<path d="M2205 1758 c-11 -6 -41 -31 -68 -56 -46 -45 -48 -46 -80 -33 -122 50
-187 60 -187 28 0 -25 40 -70 119 -134 l22 -18 -26 -53 c-70 -140 -22 -177 88
-69 l54 52 64 -27 c67 -27 122 -40 144 -32 33 13 -28 97 -112 155 l-22 15 24
50 c28 58 36 104 22 122 -11 15 -16 15 -42 0z"/>
<path d="M456 1598 c10 -135 18 -170 39 -178 11 -4 27 -5 36 -1 14 5 13 14 -7
81 -35 110 -55 160 -64 160 -5 0 -6 -28 -4 -62z"/>
<path d="M2146 1332 c-4 -7 -13 -48 -20 -91 l-13 -77 29 0 c28 0 28 0 27 58
-2 77 -12 127 -23 110z"/>
<path d="M514 1201 c6 -46 10 -71 22 -124 3 -16 7 -38 8 -50 6 -46 19 -94 42
-144 l23 -53 60 0 c34 0 61 3 61 7 0 3 -15 34 -34 68 -29 53 -38 76 -52 140
-1 6 -7 30 -14 55 -6 25 -15 65 -21 89 -5 24 -12 47 -15 50 -3 3 -24 6 -46 7
l-40 1 6 -46z"/>
<path d="M2100 990 c-5 -3 -11 -45 -14 -94 -4 -49 -9 -92 -12 -97 -3 -5 18 -9
45 -9 28 0 51 3 51 8 1 24 2 170 1 183 -1 12 -10 16 -32 15 -17 0 -34 -3 -39
-6z"/>
<path d="M1665 835 c-22 -7 -67 -25 -100 -39 -65 -28 -114 -32 -185 -15 -25 6
-52 12 -61 14 -9 2 -32 7 -50 12 -54 15 -241 4 -277 -16 -10 -5 -21 -10 -27
-11 -5 -1 -21 -8 -34 -15 l-24 -12 47 -32 c97 -67 127 -75 276 -73 74 1 151 4
170 7 19 2 64 7 100 11 36 3 74 8 85 10 119 23 232 51 295 74 94 35 94 28 5
62 -91 34 -162 42 -220 23z"/>
<path d="M686 666 c11 -37 207 -431 218 -438 13 -9 17 -5 49 54 l26 48 -53
117 c-30 65 -69 145 -88 178 l-33 61 -63 0 c-59 1 -62 0 -56 -20z"/>
<path d="M2071 622 c-6 -2 -11 -26 -11 -56 l0 -53 -109 -102 c-60 -57 -118
-109 -127 -116 -17 -12 -16 -15 11 -47 52 -61 57 -61 106 -15 25 23 72 73 104
112 33 38 72 83 87 100 19 20 28 42 29 65 0 19 2 52 5 73 3 20 1 38 -3 38 -23
4 -82 4 -92 1z"/>
<path d="M1528 504 c-28 -16 -71 -17 -116 -5 -28 8 -32 7 -32 -9 0 -51 67
-110 126 -110 24 0 87 44 77 53 -3 4 -6 24 -5 45 2 42 -9 48 -50 26z"/>
<path d="M1092 258 c-7 -7 -12 -16 -12 -21 0 -5 -10 -23 -22 -39 -25 -36 -29
-31 90 -86 92 -43 184 -70 289 -86 112 -18 168 -11 261 30 l56 25 -49 49 c-48
49 -48 49 -82 35 -32 -14 -159 -15 -212 -2 -69 17 -145 42 -220 73 -100 40
-84 37 -99 22z"/>
</g>
</svg>
