<?xml version="1.0" standalone="no"?>
<!DOCTYPE svg PUBLIC "-//W3C//DTD SVG 20010904//EN"
 "http://www.w3.org/TR/2001/REC-SVG-20010904/DTD/svg10.dtd">
<svg version="1.0" xmlns="http://www.w3.org/2000/svg"
 width="260.000000pt" height="260.000000pt" viewBox="0 0 260.000000 260.000000"
 preserveAspectRatio="xMidYMid meet">
<metadata>
Created by potrace 1.11, written by Peter Selinger 2001-2013
</metadata>
<g transform="translate(0.000000,260.000000) scale(0.100000,-0.100000)"
fill="#000000" stroke="none">
<path d="M2195 1751 c-16 -10 -47 -37 -69 -59 l-38 -40 -63 30 c-35 16 -83 30
-106 31 -69 3 -64 -23 20 -104 l71 -68 -30 -63 c-17 -35 -30 -73 -30 -85 0
-53 51 -40 123 30 l54 52 52 -22 c162 -71 218 -35 104 68 -21 19 -49 42 -61
51 -22 15 -23 18 -9 40 9 12 23 47 32 76 14 42 15 55 5 67 -16 19 -19 19 -55
-4z"/>
<path d="M450 1647 c0 -20 20 -180 25 -204 4 -18 12 -23 35 -23 17 0 30 5 30
11 0 16 -39 145 -57 192 -15 36 -33 50 -33 24z"/>
<path d="M2142 1318 c-6 -15 -14 -57 -18 -93 l-7 -65 27 0 c25 0 26 2 25 53 0
28 -4 70 -8 92 l-8 40 -11 -27z"/>
<path d="M510 1232 c0 -50 54 -299 76 -347 l24 -55 60 0 c33 0 60 2 60 5 0 3
-15 34 -32 68 -18 34 -49 124 -68 202 l-36 140 -42 3 c-36 3 -42 0 -42 -16z"/>
<path d="M2097 993 c-3 -5 -8 -52 -12 -105 l-7 -98 46 0 46 0 0 105 0 105 -34
0 c-19 0 -37 -3 -39 -7z"/>
<path d="M1695 843 c-11 -2 -59 -20 -106 -39 -101 -40 -142 -42 -249 -14 -128
34 -319 23 -404 -22 l-29 -15 48 -33 c86 -59 130 -70 278 -70 151 0 267 11
416 41 91 18 279 71 305 87 13 8 -182 72 -214 71 -14 -1 -34 -3 -45 -6z"/>
<path d="M685 668 c13 -41 205 -426 219 -437 11 -10 20 -1 45 42 l31 54 -26
59 c-14 33 -53 114 -86 182 l-62 122 -64 0 c-61 0 -63 -1 -57 -22z"/>
<path d="M2060 566 l0 -54 -122 -113 c-68 -63 -124 -116 -126 -119 -1 -3 17
-25 41 -48 l43 -42 45 44 c25 24 84 88 131 142 l85 99 7 73 6 72 -55 0 -55 0
0 -54z"/>
<path d="M1530 504 c-25 -11 -52 -14 -92 -10 -54 5 -58 4 -58 -15 0 -31 60
-86 103 -94 28 -6 43 -2 66 14 26 19 30 27 29 71 0 28 -3 50 -6 50 -4 -1 -23
-8 -42 -16z"/>
<path d="M1071 218 l-31 -53 88 -42 c147 -71 247 -96 387 -97 111 -1 124 1
179 27 l60 28 -48 48 -49 49 -40 -14 c-96 -34 -249 -3 -503 103 -7 2 -26 -20
-43 -49z"/>
</g>
</svg>
