<?xml version="1.0" standalone="no"?>
<!DOCTYPE svg PUBLIC "-//W3C//DTD SVG 20010904//EN"
 "http://www.w3.org/TR/2001/REC-SVG-20010904/DTD/svg10.dtd">
<svg version="1.0" xmlns="http://www.w3.org/2000/svg"
 width="512.000000pt" height="512.000000pt" viewBox="0 0 512.000000 512.000000"
 preserveAspectRatio="xMidYMid meet">
<metadata>
Created by potrace 1.11, written by Peter Selinger 2001-2013
</metadata>
<g transform="translate(0.000000,512.000000) scale(0.100000,-0.100000)"
fill="#000000" stroke="none">
<path d="M489 4658 c-20 -11 -46 -38 -58 -58 -21 -37 -21 -44 -21 -740 l0
-702 22 -39 c20 -36 83 -79 116 -79 9 0 12 -291 12 -1237 l0 -1238 23 -40 c13
-22 40 -49 62 -62 l40 -23 1875 0 1875 0 40 23 c22 13 49 40 62 62 l23 40 0
1237 0 1236 30 7 c17 4 44 18 61 32 62 52 59 16 59 784 0 696 0 702 -21 739
-12 21 -38 47 -59 59 l-38 21 -2033 0 -2034 0 -36 -22z m2284 -1272 c59 -24
67 -48 67 -206 l0 -140 30 0 c42 0 80 -39 80 -82 0 -48 -24 -77 -71 -84 l-39
-7 0 -259 0 -260 -34 -34 -34 -34 -212 0 -212 0 -34 34 -34 34 0 260 0 259
-39 7 c-47 7 -71 36 -71 84 0 43 38 82 80 82 l30 0 0 143 c0 214 3 216 278
217 132 0 192 -4 215 -14z"/>
</g>
</svg>
